<svg width="20" height="20" viewBox="0 0 20 20" fill="none" xmlns="http://www.w3.org/2000/svg">
<path d="M15.9984 18.6664H1.3332V4.00117H10.1457L11.4789 2.66797H1.3332C0.979616 2.66797 0.64051 2.80843 0.390486 3.05845C0.140462 3.30848 0 3.64758 0 4.00117V18.6664C0 19.02 0.140462 19.3591 0.390486 19.6091C0.64051 19.8591 0.979616 19.9996 1.3332 19.9996H15.9984C16.352 19.9996 16.6911 19.8591 16.9412 19.6091C17.1912 19.3591 17.3316 19.02 17.3316 18.6664V8.66738L15.9984 10.0006V18.6664Z" fill="#0095F7"/>
<path d="M19.6843 2.56183L17.4379 0.315381C17.3382 0.215411 17.2197 0.136095 17.0893 0.081976C16.9589 0.0278573 16.8191 0 16.678 0C16.5368 0 16.397 0.0278573 16.2666 0.081976C16.1362 0.136095 16.0177 0.215411 15.918 0.315381L6.77892 9.50782L6.03899 12.7142C6.00747 12.8696 6.01078 13.0301 6.0487 13.1841C6.08661 13.3381 6.15818 13.4817 6.25825 13.6048C6.35833 13.7278 6.48443 13.8271 6.62748 13.8956C6.77053 13.964 6.92697 13.9999 7.08556 14.0007C7.16752 14.0097 7.25023 14.0097 7.3322 14.0007L10.5652 13.2874L19.6843 4.08168C19.7843 3.98198 19.8636 3.86354 19.9177 3.73314C19.9719 3.60274 19.9997 3.46294 19.9997 3.32175C19.9997 3.18057 19.9719 3.04077 19.9177 2.91037C19.8636 2.77997 19.7843 2.66153 19.6843 2.56183V2.56183ZM9.87195 12.0542L7.43219 12.5942L7.9988 10.1744L14.8781 3.24843L16.7579 5.12824L9.87195 12.0542ZM17.5112 4.37499L15.6314 2.49517L16.6646 1.44194L18.5578 3.33509L17.5112 4.37499Z" fill="#0095F7"/>
</svg>
