<svg width="36" height="34" viewBox="0 0 36 34" fill="none" xmlns="http://www.w3.org/2000/svg">
<g id="Group">
<path id="Vector" d="M27.6732 29.9277H8.32737C7.90673 29.9277 7.48633 30.3705 7.48633 30.8131V33.1152C7.48633 33.558 7.90696 34.0006 8.32737 34.0006H27.6732C28.1779 34.0006 28.5142 33.5578 28.5142 33.1152V30.8131C28.5142 30.3703 28.1779 29.9277 27.6732 29.9277Z" fill="#A76FEC"/>
<path id="Vector_2" d="M9.58887 27.8903H26.4114V18.9477C26.4114 14.078 22.6263 10.0938 18.0004 10.0938C13.3743 10.0938 9.58944 14.0781 9.58944 18.9477V27.8903H9.58887ZM18.5045 14.2551C18.0839 14.2551 17.7475 13.901 17.7475 13.4582C17.7475 13.0154 18.0839 12.5729 18.5045 12.5729C21.5325 12.5729 24.0559 15.2291 24.0559 18.4166C24.0559 18.8594 23.7195 19.2135 23.2148 19.2135C22.7942 19.2135 22.4578 18.8594 22.4578 18.4166C22.4578 16.1145 20.6915 14.2551 18.5045 14.2551Z" fill="#A76FEC"/>
<path id="Vector_3" d="M17.0752 0.974036C17.0752 0.442788 17.4958 0 18.0005 0C18.5052 0 19.0098 0.442788 19.0098 0.974036V5.57811C19.0098 6.10936 18.5052 6.6406 18.0005 6.6406C17.4958 6.6406 17.0752 6.10936 17.0752 5.57811V0.974036Z" fill="#A76FEC"/>
<path id="Vector_4" d="M29.355 5.57818C29.7756 5.1354 30.3643 5.1354 30.7849 5.57818C31.1213 5.93227 31.1213 6.55222 30.7849 6.99477L27.6729 10.1823C27.3365 10.625 26.6636 10.625 26.3272 10.1823C25.9066 9.82817 25.9066 9.20822 26.3272 8.76568L29.3552 5.57818H29.355Z" fill="#A76FEC"/>
<path id="Vector_5" d="M35.0744 17.9736C35.5791 17.9736 35.9997 18.4164 35.9997 18.9477C35.9997 19.4789 35.5791 20.0102 35.0744 20.0102H30.7007C30.196 20.0102 29.7754 19.4789 29.7754 18.9477C29.7754 18.4164 30.196 17.9736 30.7007 17.9736H35.0744Z" fill="#A76FEC"/>
<path id="Vector_6" d="M5.29887 6.99477C4.87824 6.55198 4.87824 5.93227 5.29887 5.57818C5.63524 5.1354 6.22418 5.1354 6.64458 5.57818L9.6726 8.76567C10.0932 9.20846 10.0932 9.82817 9.6726 10.1823C9.33623 10.625 8.7473 10.625 8.32689 10.1823L5.29887 6.99477Z" fill="#A76FEC"/>
<path id="Vector_7" d="M0.925304 20.0102C0.420635 20.0102 0 19.4789 0 18.9477C0 18.4164 0.420635 17.9736 0.925304 17.9736H5.29903C5.8037 17.9736 6.22433 18.4164 6.22433 18.9477C6.22433 19.4789 5.8037 20.0102 5.29903 20.0102H0.925304Z" fill="#A76FEC"/>
</g>
</svg>
