<svg width="37" height="40" viewBox="0 0 37 40" fill="none" xmlns="http://www.w3.org/2000/svg">
<g id="Group">
<path id="Vector" d="M11.1568 4.06412C11.1568 6.30857 9.33718 8.12823 7.09244 8.12823C4.84798 8.12823 3.02832 6.30857 3.02832 4.06412C3.02832 1.81937 4.84798 0 7.09244 0C9.33718 0 11.1568 1.81937 11.1568 4.06412Z" fill="#A76FEC"/>
<path id="Vector_2" d="M2.52518 22.866V37.7587C2.51045 38.2535 2.68066 38.7358 3.00295 39.1113C3.32525 39.4866 3.77583 39.7284 4.26696 39.7887C4.80903 39.8414 5.34797 39.663 5.75159 39.2974C6.15516 38.9317 6.3857 38.4129 6.38655 37.8683V27.0357C6.37947 26.6806 6.62728 26.3713 6.97506 26.3008C7.17869 26.2702 7.38544 26.3297 7.54149 26.4636C7.69754 26.5979 7.78703 26.7933 7.78731 26.9992V37.7585C7.77259 38.255 7.94478 38.739 8.26934 39.1148C8.59419 39.4906 9.04787 39.7311 9.54125 39.7886C10.083 39.8412 10.6223 39.6628 11.0256 39.2972C11.4292 38.9316 11.6597 38.4127 11.6605 37.8681V15.4279L13.581 17.9411C13.8336 18.2708 14.191 18.5039 14.5944 18.6022C14.9976 18.7002 15.4222 18.6577 15.798 18.4812L21.9573 15.5823H21.957C22.3717 15.3957 22.7039 15.0643 22.8914 14.6503C23.0791 14.2362 23.1092 13.7678 22.9763 13.3331C22.8121 12.8394 22.4448 12.4398 21.9667 12.235C21.4886 12.03 20.9457 12.0396 20.4753 12.2611L15.5707 14.5633L12.4361 10.3893C12.1135 9.94017 11.6007 9.66573 11.0475 9.64648H3.13029C2.30021 9.64648 1.50377 9.97615 0.917009 10.5633C0.329907 11.1504 0 11.9468 0 12.7768V19.7968C0.000566461 20.5218 0.252627 21.2239 0.713125 21.7838C1.17363 22.3434 1.81429 22.726 2.52539 22.8663L2.52518 22.866Z" fill="#A76FEC"/>
<path id="Vector_3" d="M36.0136 21.7218H27.8933C27.4447 21.7218 27.0811 22.0854 27.0811 22.5337V24.231C27.0811 24.4462 27.1666 24.653 27.3189 24.8051C27.4713 24.9574 27.6778 25.043 27.8933 25.043H36.0136C36.2288 25.043 36.4353 24.9574 36.5876 24.8051C36.74 24.653 36.8255 24.4462 36.8255 24.231V22.5297C36.8233 22.0828 36.4602 21.7217 36.0136 21.7217L36.0136 21.7218Z" fill="#A76FEC"/>
<path id="Vector_4" d="M36.0136 30.7833H27.8933C27.4447 30.7833 27.0811 31.1469 27.0811 31.5952V33.2925C27.0811 33.5078 27.1666 33.7145 27.3189 33.8666C27.4713 34.019 27.6778 34.1045 27.8933 34.1045H36.0136C36.2288 34.1045 36.4353 34.019 36.5876 33.8666C36.74 33.7145 36.8255 33.5078 36.8255 33.2925V31.5912C36.8233 31.1443 36.4602 30.7832 36.0136 30.7832L36.0136 30.7833Z" fill="#A76FEC"/>
<path id="Vector_5" d="M24.8801 20.3663L23.9503 19.4365C23.6455 19.1218 23.1462 19.1057 22.8217 19.4L18.9768 22.7982L17.1943 21.4017C16.868 21.138 16.3948 21.166 16.1023 21.4665L15.1642 22.3963C14.8536 22.6991 14.8357 23.1924 15.1237 23.517L18.3719 27.2806C18.526 27.4553 18.7477 27.5556 18.9808 27.5556C19.2139 27.5556 19.4357 27.4553 19.5897 27.2806L24.9087 21.5192C25.0585 21.3631 25.1401 21.1532 25.1347 20.9369C25.1293 20.7202 25.0379 20.5149 24.8801 20.3662L24.8801 20.3663Z" fill="#A76FEC"/>
<path id="Vector_6" d="M23.9546 28.498C23.6496 28.1834 23.1502 28.1672 22.8257 28.4615L18.9808 31.8597L17.1943 30.451C16.868 30.1873 16.3948 30.2154 16.1023 30.5159L15.1642 31.4578C14.8536 31.7606 14.8357 32.2539 15.1237 32.5785L18.3719 36.3421C18.526 36.5168 18.7477 36.6171 18.9808 36.6171C19.2139 36.6171 19.4357 36.5168 19.5897 36.3421L24.9087 30.5645C25.2115 30.2422 25.2007 29.7367 24.8844 29.4277L23.9546 28.498Z" fill="#A76FEC"/>
</g>
</svg>
