<svg width="35" height="34" viewBox="0 0 35 34" fill="none" xmlns="http://www.w3.org/2000/svg">
<g id="foundation:graph-pie">
<path id="Vector" d="M18.6236 4.37598C18.3751 4.37598 18.1731 4.57794 18.1731 4.82682C18.1731 4.84994 18.183 4.87 18.1864 4.89244H18.1731V15.5814C18.1731 15.8302 18.3751 16.0322 18.6236 16.0322H29.3122V16.0189C29.3346 16.0223 29.3547 16.0322 29.3782 16.0322C29.6267 16.0322 29.8287 15.8302 29.8287 15.5814C29.7648 9.42056 24.7844 4.44024 18.6236 4.37598Z" fill="#A76EEC"/>
<path id="Vector_2" d="M27.2229 18.1765C27.2229 17.9276 27.0213 17.7257 26.7724 17.7257H16.9468C16.8272 17.7256 16.7127 17.678 16.6282 17.5935C16.5437 17.509 16.4963 17.3943 16.4963 17.2748V7.48521H16.483C16.4864 7.46277 16.4963 7.44271 16.4963 7.41959C16.4963 7.17037 16.2943 6.96875 16.0454 6.96875C16.0345 6.96875 16.0257 6.97419 16.0152 6.97487V6.97181C15.975 6.97147 15.9353 6.96875 15.8951 6.96875C9.63913 6.96875 4.56735 12.0405 4.56735 18.2965C4.56735 24.5525 9.63913 29.6243 15.8951 29.6243C22.1511 29.6243 27.2229 24.5525 27.2229 18.2965C27.2229 18.2605 27.2212 18.2248 27.2205 18.1884C27.2205 18.184 27.2229 18.1806 27.2229 18.1765Z" fill="#0095F7"/>
</g>
</svg>
