<svg width="16" height="18" viewBox="0 0 16 18" fill="none" xmlns="http://www.w3.org/2000/svg">
<mask id="path-1-inside-1_4723_1694" fill="white">
<path fill-rule="evenodd" clip-rule="evenodd" d="M10.7403 16.0999C10.9485 15.648 11.3543 15.2711 11.8518 15.2711H14.2706C15.7257 15.2711 16.5285 13.5817 15.6095 12.4535C14.9499 11.6438 14.5114 10.677 14.3367 9.6474L13.7811 6.37356C13.3026 3.55418 10.8601 1.49121 8.00039 1.49121C5.1407 1.49121 2.69814 3.55418 2.21968 6.37356L1.66409 9.6474C1.48936 10.677 1.05084 11.6438 0.391274 12.4535C-0.527752 13.5817 0.275057 15.2711 1.73021 15.2711H4.15029C4.64782 15.2711 5.05364 15.648 5.26182 16.0999C5.73892 17.1355 6.78604 17.8544 8.00106 17.8544C9.21609 17.8544 10.2632 17.1355 10.7403 16.0999Z"/>
</mask>
<path d="M15.6095 12.4535L14.4465 13.4008L14.4465 13.4008L15.6095 12.4535ZM14.3367 9.6474L15.8155 9.39643L14.3367 9.6474ZM13.7811 6.37356L12.3022 6.62453L12.3022 6.62453L13.7811 6.37356ZM2.21968 6.37356L0.740823 6.12259L0.740823 6.12259L2.21968 6.37356ZM1.66409 9.6474L3.14295 9.89837L3.14295 9.89837L1.66409 9.6474ZM0.391274 12.4535L1.55426 13.4008L1.55426 13.4008L0.391274 12.4535ZM5.26182 16.0999L3.89944 16.7275L5.26182 16.0999ZM10.7403 16.0999L9.37793 15.4723L10.7403 16.0999ZM14.2706 13.7711H11.8518V16.7711H14.2706V13.7711ZM14.4465 13.4008C14.4874 13.451 14.4971 13.4888 14.4999 13.5168C14.5033 13.5514 14.4973 13.5957 14.4755 13.6416C14.4538 13.6874 14.4231 13.72 14.3942 13.7392C14.3707 13.7548 14.3353 13.7711 14.2706 13.7711V16.7711C16.9896 16.7711 18.4898 13.6143 16.7725 11.5061L14.4465 13.4008ZM12.8578 9.89837C13.0759 11.1835 13.6233 12.3902 14.4465 13.4008L16.7725 11.5061C16.2766 10.8974 15.9469 10.1705 15.8155 9.39643L12.8578 9.89837ZM12.3022 6.62453L12.8578 9.89837L15.8155 9.39643L15.26 6.12259L12.3022 6.62453ZM8.00039 2.99121C10.1285 2.99121 11.9462 4.52642 12.3022 6.62453L15.26 6.12259C14.6591 2.58194 11.5917 -0.00878906 8.00039 -0.00878906V2.99121ZM3.69853 6.62453C4.05459 4.52642 5.87228 2.99121 8.00039 2.99121V-0.00878906C4.40911 -0.00878906 1.34169 2.58194 0.740823 6.12259L3.69853 6.62453ZM3.14295 9.89837L3.69853 6.62453L0.740823 6.12259L0.185236 9.39643L3.14295 9.89837ZM1.55426 13.4008C2.37751 12.3902 2.92485 11.1835 3.14295 9.89837L0.185236 9.39643C0.0538675 10.1705 -0.275827 10.8974 -0.771711 11.5061L1.55426 13.4008ZM1.73021 13.7711C1.66552 13.7711 1.63006 13.7548 1.60662 13.7392C1.57763 13.72 1.54701 13.6874 1.52524 13.6416C1.50346 13.5958 1.4975 13.5514 1.50091 13.5168C1.50367 13.4888 1.5134 13.451 1.55426 13.4008L-0.77171 11.5061C-2.48899 13.6143 -0.988871 16.7711 1.73021 16.7711V13.7711ZM4.15029 13.7711H1.73021V16.7711H4.15029V13.7711ZM8.00106 16.3544C7.39295 16.3544 6.86543 15.9959 6.6242 15.4723L3.89944 16.7275C4.61241 18.2751 6.17913 19.3544 8.00106 19.3544V16.3544ZM9.37793 15.4723C9.13669 15.9959 8.60918 16.3544 8.00106 16.3544V19.3544C9.82299 19.3544 11.3897 18.2751 12.1027 16.7275L9.37793 15.4723ZM4.15029 16.7711C4.00257 16.7711 3.90817 16.7117 3.88138 16.6904C3.86928 16.6808 3.86898 16.6781 3.87572 16.687C3.88233 16.6957 3.89121 16.7097 3.89944 16.7275L6.6242 15.4723C6.28019 14.7255 5.45562 13.7711 4.15029 13.7711V16.7711ZM11.8518 13.7711C10.5465 13.7711 9.72194 14.7255 9.37793 15.4723L12.1027 16.7275C12.1109 16.7097 12.1198 16.6957 12.1264 16.687C12.1331 16.6781 12.1328 16.6808 12.1207 16.6904C12.094 16.7117 11.9996 16.7711 11.8518 16.7711V13.7711Z" fill="#A76EEC" mask="url(#path-1-inside-1_4723_1694)"/>
<circle cx="11.5742" cy="2.625" r="2.625" fill="#44EC9F"/>
</svg>
