<svg width="24" height="24" viewBox="0 0 24 24" fill="none" xmlns="http://www.w3.org/2000/svg">
<path opacity="0.4" d="M3.09277 9.40445H20.9167" stroke="#242B35" stroke-width="1.5" stroke-linecap="round" stroke-linejoin="round"/>
<path opacity="0.4" fill-rule="evenodd" clip-rule="evenodd" d="M6.80762 13.3096C6.80762 12.8954 7.1434 12.5596 7.55762 12.5596H7.56688C7.98109 12.5596 8.31688 12.8954 8.31688 13.3096C8.31688 13.7238 7.98109 14.0596 7.56688 14.0596H7.55762C7.1434 14.0596 6.80762 13.7238 6.80762 13.3096ZM12.0043 12.5596C11.5901 12.5596 11.2543 12.8954 11.2543 13.3096C11.2543 13.7238 11.5901 14.0596 12.0043 14.0596H12.0136C12.4278 14.0596 12.7636 13.7238 12.7636 13.3096C12.7636 12.8954 12.4278 12.5596 12.0136 12.5596H12.0043ZM16.4418 12.5596C16.0276 12.5596 15.6918 12.8954 15.6918 13.3096C15.6918 13.7238 16.0276 14.0596 16.4418 14.0596H16.4511C16.8653 14.0596 17.2011 13.7238 17.2011 13.3096C17.2011 12.8954 16.8653 12.5596 16.4511 12.5596H16.4418ZM16.4418 16.446C16.0276 16.446 15.6918 16.7818 15.6918 17.196C15.6918 17.6103 16.0276 17.946 16.4418 17.946H16.4511C16.8653 17.946 17.2011 17.6103 17.2011 17.196C17.2011 16.7818 16.8653 16.446 16.4511 16.446H16.4418ZM11.2543 17.196C11.2543 16.7818 11.5901 16.446 12.0043 16.446H12.0136C12.4278 16.446 12.7636 16.7818 12.7636 17.196C12.7636 17.6103 12.4278 17.946 12.0136 17.946H12.0043C11.5901 17.946 11.2543 17.6103 11.2543 17.196ZM7.55762 16.446C7.1434 16.446 6.80762 16.7818 6.80762 17.196C6.80762 17.6103 7.1434 17.946 7.55762 17.946H7.56688C7.98109 17.946 8.31688 17.6103 8.31688 17.196C8.31688 16.7818 7.98109 16.446 7.56688 16.446H7.55762Z" fill="#242B35"/>
<path d="M16.0433 2V5.29078" stroke="#242B35" stroke-width="1.5" stroke-linecap="round" stroke-linejoin="round"/>
<path d="M7.96515 2V5.29078" stroke="#242B35" stroke-width="1.5" stroke-linecap="round" stroke-linejoin="round"/>
<path fill-rule="evenodd" clip-rule="evenodd" d="M16.2383 3.5791H7.77096C4.83427 3.5791 3 5.21504 3 8.22213V17.2718C3 20.3261 4.83427 21.9999 7.77096 21.9999H16.229C19.175 21.9999 21 20.3545 21 17.3474V8.22213C21.0092 5.21504 19.1842 3.5791 16.2383 3.5791Z" stroke="#242B35" stroke-width="1.5" stroke-linecap="round" stroke-linejoin="round"/>
</svg>
