<svg width="24" height="36" viewBox="0 0 24 36" fill="none" xmlns="http://www.w3.org/2000/svg">
<g id="Group">
<path id="Vector" d="M21.5261 6.50677H20.1075V8.12125C20.1075 9.19757 19.1778 9.6378 18.0527 9.6378H5.77282C4.64767 9.6378 3.71803 9.19756 3.71803 8.12125V6.50677H2.29942C1.02749 6.50677 0 7.53434 0 8.80618V33.2191C0 34.4911 1.02757 35.5185 2.29942 35.5185H21.4775C22.7494 35.5185 23.7769 34.491 23.7769 33.2191L23.7766 8.80618C23.8745 7.53425 22.7982 6.50677 21.5263 6.50677H21.5261ZM6.26189 30.2348H3.47306V27.6907C3.47306 27.5439 3.6198 27.3972 3.76655 27.3972H6.01722C6.16396 27.3972 6.31071 27.5439 6.31071 27.6907L6.31105 30.2348H6.26189ZM6.26189 22.8471C6.26189 22.9939 6.11514 23.1406 5.9684 23.1406H3.71773C3.57099 23.1406 3.42424 22.9939 3.42424 22.8471V20.5965C3.42424 20.4497 3.57099 20.303 3.71773 20.303H5.9684C6.11514 20.303 6.26189 20.4497 6.26189 20.5965V22.8471ZM6.26189 15.8512C6.26189 15.9979 6.11514 16.1447 5.9684 16.1447H3.71773C3.57099 16.1447 3.42424 15.9979 3.42424 15.8512V13.6005C3.42424 13.4538 3.57099 13.307 3.71773 13.307H5.9684C6.11514 13.307 6.26189 13.4538 6.26189 13.6005V15.8512ZM20.4498 29.7455H9.19731V27.8864H20.4498V29.7455ZM20.4498 22.6517H9.19731V20.7925H20.4498V22.6517ZM20.4498 15.6066H9.19731V13.7474H20.4498V15.6066ZM5.52803 8.85502H18.346C18.9822 8.85502 19.4712 8.41479 19.4712 7.87663V5.03906C19.4712 4.50088 18.9818 4.06067 18.346 4.06067H15.7531C15.6551 1.81 13.943 0 11.8883 0C9.83349 0 8.17018 1.81009 8.02349 4.06067H5.43053C4.79442 4.06067 4.30537 4.5009 4.30537 5.03906V7.87663C4.40298 8.41481 4.89201 8.85502 5.52812 8.85502H5.52803ZM11.937 1.32094C12.5731 1.32094 13.1112 1.85912 13.1112 2.4952C13.1112 3.13128 12.573 3.66945 11.937 3.66945C11.3009 3.66945 10.7627 3.13128 10.7627 2.4952C10.7627 1.85912 11.3009 1.32094 11.937 1.32094Z" fill="#A76FEC"/>
</g>
</svg>
