<svg width="24" height="24" viewBox="0 0 24 24" fill="none" xmlns="http://www.w3.org/2000/svg">
<g clip-path="url(#clip0_1464_2012)">
<path d="M5.03557 18.1894V22L11.387 18.1894H16.166C17.2821 18.1894 18.1897 17.2817 18.1897 16.1656V8.0708C18.1897 6.95472 17.2821 6.04709 16.166 6.04709H4.02371C2.90763 6.04709 2 6.95472 2 8.0708V16.1656C2 17.2817 2.90763 18.1894 4.02371 18.1894H5.03557ZM4.02371 8.0708H16.166V16.1656H10.8264L7.05928 18.4261V16.1656H4.02371V8.0708Z" fill="#D4D3D4"/>
<path d="M20.2131 2H8.0708C6.95472 2 6.04709 2.90763 6.04709 4.02371H18.1894C19.3054 4.02371 20.2131 4.93135 20.2131 6.04742V14.1423C21.3291 14.1423 22.2368 13.2346 22.2368 12.1186V4.02371C22.2368 2.90763 21.3291 2 20.2131 2Z" fill="#D4D3D4"/>
</g>
<defs>
<clipPath id="clip0_1464_2012">
<rect width="24" height="24" fill="white"/>
</clipPath>
</defs>
</svg>
