<svg width="24" height="24" viewBox="0 0 24 24" fill="none" xmlns="http://www.w3.org/2000/svg">
<g clip-path="url(#clip0_1464_1993)">
<path fill-rule="evenodd" clip-rule="evenodd" d="M2.99023 19C2.99023 19.5523 3.43795 20 3.99024 20L19.9342 20C20.4864 20 20.9342 19.5523 20.9342 19L20.9342 18C20.9342 17.4477 20.4864 17 19.9342 17L3.99023 17C3.43795 17 2.99023 17.4477 2.99023 18L2.99023 19ZM2.99023 14C2.99023 14.5523 3.43795 15 3.99023 15L19.9342 15C20.4864 15 20.9342 14.5523 20.9342 14L20.9342 13C20.9342 12.4477 20.4864 12 19.9342 12L3.99023 12C3.43795 12 2.99023 12.4477 2.99023 13L2.99023 14Z" fill="#D4D3D4"/>
<rect width="2.99901" height="17.9499" rx="1" transform="matrix(-0.324661 -0.94583 0.945205 -0.326477 3.91211 10.5225)" fill="#D4D3D4"/>
</g>
<defs>
<clipPath id="clip0_1464_1993">
<rect width="23.9252" height="24" fill="white"/>
</clipPath>
</defs>
</svg>
