<svg width="24" height="24" viewBox="0 0 24 24" fill="none" xmlns="http://www.w3.org/2000/svg">
<path fill-rule="evenodd" clip-rule="evenodd" d="M5.52237 10.0044C5.31187 10.2472 5.48436 10.625 5.80573 10.625H19.1163C19.4377 10.625 19.6101 10.2472 19.3996 10.0044L12.7444 2.32688C12.5948 2.15439 12.3272 2.15438 12.1777 2.32688L5.52237 10.0044Z" fill="#D4D3D4"/>
<path fill-rule="evenodd" clip-rule="evenodd" d="M6.4834 11.75C5.86208 11.75 5.3584 12.2537 5.3584 12.875V20.375C5.3584 20.9963 5.86208 21.5 6.4834 21.5H10.592V15.4871C10.592 15.28 10.7599 15.1121 10.967 15.1121H13.9554C14.1625 15.1121 14.3304 15.28 14.3304 15.4871V21.5H18.439C19.0603 21.5 19.564 20.9963 19.564 20.375V12.875C19.564 12.2537 19.0603 11.75 18.439 11.75H6.4834Z" fill="#D4D3D4"/>
</svg>
