<svg width="26" height="24" viewBox="0 0 26 24" fill="none" xmlns="http://www.w3.org/2000/svg">
<g clip-path="url(#clip0_1464_2007)">
<path d="M12.5345 11C10.227 11 8.35645 9.20914 8.35645 7C8.35645 4.79086 10.227 3 12.5345 3C14.8419 3 16.7125 4.79086 16.7125 7C16.7125 9.20914 14.8419 11 12.5345 11Z" fill="#D4D3D4"/>
<path d="M3.13447 20.1992C3.53933 15.4265 7.58537 13 12.5169 13C17.5179 13 21.6266 15.2932 21.9327 20.2C21.9449 20.3955 21.9327 21 21.148 21C17.2775 21 11.5261 21 3.89367 21C3.63172 21 3.11242 20.4592 3.13447 20.1992Z" fill="#D4D3D4"/>
</g>
<defs>
<clipPath id="clip0_1464_2007">
<rect width="25.0681" height="24" fill="white"/>
</clipPath>
</defs>
</svg>
