<svg width="135" height="133" viewBox="0 0 135 133" fill="none" xmlns="http://www.w3.org/2000/svg">
<g id="Group 476">
<path id="Vector" d="M122.425 125.517C122.046 125.775 121.65 126.018 121.237 126.249C119.185 127.39 116.742 128.204 113.971 128.707L113.961 128.706C112.996 128.881 112.041 129.03 111.095 129.151C110.057 129.285 109.031 129.388 108.017 129.459C106.593 129.559 105.186 129.6 103.797 129.583C102.739 129.57 101.689 129.524 100.647 129.446C99.5781 129.368 98.5154 129.254 97.4589 129.106L97.1211 129.058C95.9584 128.89 94.7995 128.683 93.6442 128.438C92.8901 128.28 92.1361 128.107 91.3822 127.918C88.9496 127.298 86.553 126.551 84.2033 125.68C83.2663 125.336 82.3238 124.972 81.3758 124.587C78.9226 123.595 76.4221 122.469 73.843 121.227C73.5775 121.098 73.3114 120.969 73.0434 120.839C71.6748 120.17 70.2818 119.469 68.8644 118.737C67.6201 118.095 66.4443 117.539 65.3272 117.058C64.0736 116.512 62.7905 116.032 61.4837 115.62C60.8176 115.413 60.1699 115.232 59.5406 115.079C57.8763 114.67 56.1739 114.426 54.4606 114.351C53.99 114.332 53.519 114.339 53.0499 114.373C52.2811 114.43 51.517 114.531 50.7615 114.674C46.4925 115.454 41.2363 117.444 36.0604 118.855C34.2035 119.364 32.3584 119.793 30.5714 120.068C22.9112 121.248 16.8722 119.844 12.8137 116.584C5.75074 110.912 -1.3599 97.7649 5.44756 84.6677C16.7272 62.9689 46.3759 69.8627 62.6181 69.1315C73.6079 68.6352 79.1229 63.1088 86.623 58.8626C100.958 50.7482 120.065 54.1605 124.733 62.3952C128.63 69.2714 123.513 78.8746 123.201 89.6594C123.106 92.9884 123.469 96.4352 124.7 99.9469C124.759 100.116 124.82 100.285 124.883 100.455C125 100.766 125.124 101.078 125.256 101.391C125.472 101.908 125.676 102.417 125.868 102.918C125.91 103.029 125.952 103.14 125.994 103.25C126.042 103.38 126.09 103.508 126.136 103.635C130.111 114.542 128.192 121.607 122.425 125.517Z" fill="#DFC5FF"/>
<g id="Group 475">
<path id="Vector_2" d="M52.6994 73.6859C54.1378 73.7511 55.5737 73.5086 56.9122 72.9742C63.4905 70.3542 66.2819 61.4601 65.2277 46.554C64.4002 34.9145 61.4439 22.1327 59.112 13.4599C58.8161 12.3236 58.2853 11.263 57.5543 10.3471C56.8233 9.43125 55.9085 8.68079 54.8697 8.14464C53.0302 7.21945 51.0106 7.11148 49.1809 7.84147L45.5717 9.28148L46.501 11.6381L50.1089 10.198C51.2623 9.73755 52.5511 9.81404 53.7403 10.4123C54.4617 10.7887 55.0962 11.3137 55.6025 11.9532C56.1088 12.5926 56.4755 13.3322 56.6789 14.1238C58.9823 22.6894 61.9006 35.2989 62.713 46.7368C63.1673 53.1185 62.8953 58.358 61.9046 62.3096C60.8057 66.6931 58.8144 69.487 55.9844 70.6163C53.1543 71.7456 49.7999 71.0843 46.0164 68.65C42.6047 66.4554 38.8389 62.8269 34.8283 57.864C27.6349 48.973 21.1743 37.776 17.0217 29.9492C16.6305 29.2326 16.3938 28.441 16.3272 27.6261C16.2606 26.8112 16.3654 25.9911 16.6349 25.2195C17.0972 23.9638 17.9805 23.0186 19.1325 22.5594L22.2896 21.299L21.3603 18.9424L18.2005 20.2013C16.3709 20.9313 14.973 22.4087 14.2636 24.3468C13.8718 25.4537 13.7164 26.6311 13.8078 27.8023C13.8991 28.9734 14.2351 30.1119 14.7938 31.1433C18.9984 39.07 25.5473 50.4165 32.8697 59.4656C40.3314 68.6884 46.9805 73.4503 52.6994 73.6859Z" fill="#2E6B99"/>
<path id="Vector_3" d="M25.5956 23.4658L24.8664 23.7579C24.666 23.838 24.4518 23.8776 24.2362 23.8744C24.0206 23.8711 23.8078 23.8252 23.6099 23.7392C23.412 23.6532 23.2329 23.5288 23.0829 23.3731C22.9328 23.2173 22.8148 23.0334 22.7355 22.8317L20.7358 17.7561C20.6567 17.5542 20.618 17.3386 20.6219 17.1215C20.6258 16.9045 20.6722 16.6904 20.7584 16.4914C20.8446 16.2924 20.9691 16.1124 21.1245 15.9618C21.28 15.8112 21.4634 15.6929 21.6643 15.6137L22.3934 15.323C22.7965 15.1649 23.2452 15.1734 23.642 15.3465C24.0388 15.5196 24.3515 15.8433 24.5121 16.2473L26.5118 21.3229C26.6723 21.7292 26.666 22.183 26.4942 22.5848C26.3224 22.9865 25.9992 23.3034 25.5956 23.4658Z" fill="#0E2549"/>
<path id="Vector_4" d="M46.2761 15.2149L45.5456 15.5056C45.141 15.6669 44.6893 15.66 44.2899 15.4863C43.8906 15.3126 43.5762 14.9864 43.416 14.5795L41.4177 9.50393C41.2574 9.09715 41.2644 8.6429 41.4369 8.24109C41.6095 7.83927 41.9337 7.52277 42.338 7.36118L43.0671 7.07044C43.4721 6.91058 43.9233 6.91824 44.3225 7.09174C44.7217 7.26524 45.0364 7.59051 45.198 7.99662L47.1964 13.0708C47.276 13.2723 47.3153 13.4876 47.3121 13.7044C47.3089 13.9213 47.2633 14.1354 47.1778 14.3345C47.0923 14.5336 46.9687 14.7138 46.814 14.8649C46.6592 15.016 46.4765 15.1349 46.2761 15.2149Z" fill="#0E2549"/>
<path id="Vector_5" d="M53.8704 120.602C56.0317 120.691 57.9371 120.081 59.5673 118.78C64.1167 115.146 66.0979 106.087 65.4538 91.8563C64.9878 81.5409 63.266 72.0796 63.2479 71.9866C63.2114 71.7868 63.1361 71.5963 63.0263 71.4259C62.9165 71.2555 62.7743 71.1086 62.6079 70.9936C62.4416 70.8785 62.2543 70.7976 62.0568 70.7555C61.8593 70.7134 61.6554 70.7109 61.4569 70.7481C61.0563 70.8229 60.7015 71.0545 60.4705 71.3922C60.2395 71.7299 60.1512 72.146 60.225 72.549C60.243 72.642 61.9313 81.9229 62.3853 92.03C62.6493 97.9124 62.4504 102.908 61.7938 106.888C61.0166 111.601 59.6252 114.783 57.6569 116.354C55.7677 117.863 53.2498 117.893 49.9591 116.45C45.2235 114.371 44.5871 111.548 43.8497 108.286C43.0212 104.612 42.0816 100.446 35.2398 98.0361C34.8557 97.9018 34.4343 97.9261 34.0679 98.1038C33.7014 98.2815 33.4199 98.598 33.2849 98.9839C33.1512 99.3704 33.1752 99.7943 33.3516 100.163C33.528 100.531 33.8425 100.814 34.2261 100.95C39.4668 102.796 40.0826 105.52 40.8602 108.969C41.6644 112.534 42.5763 116.577 48.7368 119.28C50.5735 120.105 52.2911 120.536 53.8704 120.602Z" fill="#0E2549"/>
<path id="Vector_6" d="M33.4395 88.0742C31.2137 86.007 28.2623 84.9142 25.2345 85.0363C22.2068 85.1584 19.3506 86.4854 17.2944 88.7253C16.276 89.8343 15.4848 91.1341 14.9657 92.5505C14.4466 93.9669 14.21 95.4721 14.2692 96.9803C14.3284 98.4884 14.6824 99.9699 15.3109 101.34C15.9394 102.71 16.8302 103.942 17.9323 104.966C19.0342 105.99 20.3259 106.785 21.7337 107.307C23.1415 107.828 24.6377 108.066 26.1369 108.005C27.6362 107.945 29.1091 107.588 30.4715 106.955C31.8339 106.322 33.0592 105.426 34.0773 104.316C36.1337 102.076 37.2217 99.1068 37.1021 96.0608C36.9825 93.0149 35.665 90.1421 33.4395 88.0742Z" fill="#2E6B99"/>
<path id="Vector_7" d="M30.8971 90.4783C30.1309 89.7664 29.2328 89.2134 28.254 88.8509C27.2752 88.4883 26.2349 88.3233 25.1925 88.3652C24.1501 88.4072 23.1261 88.6552 22.1788 89.0953C21.2315 89.5354 20.3796 90.1588 19.6717 90.93C18.2421 92.4874 17.4857 94.5519 17.5689 96.6695C17.6521 98.7871 18.568 100.784 20.1152 102.222C20.8814 102.934 21.7795 103.487 22.7583 103.849C23.7371 104.212 24.7774 104.377 25.8198 104.335C26.8622 104.293 27.8862 104.045 28.8335 103.605C29.7808 103.165 30.6327 102.541 31.3406 101.77C32.0486 100.999 32.5988 100.095 32.9597 99.1106C33.3206 98.1258 33.4851 97.0793 33.4439 96.0307C33.4028 94.9821 33.1566 93.952 32.7196 92.9994C32.2826 92.0467 31.6633 91.19 30.8971 90.4783Z" fill="white"/>
<path id="Vector_8" d="M19.9759 102.369C18.392 100.894 17.4546 98.8473 17.3693 96.6774C17.2839 94.5075 18.0577 92.3917 19.5208 90.7942C20.2448 90.0014 21.1179 89.3609 22.0895 88.9096C23.0611 88.4584 24.1119 88.2054 25.1811 88.1653C26.2501 88.1196 27.3173 88.2877 28.321 88.6599C29.3247 89.0321 30.2449 89.6009 31.0284 90.3335C31.8159 91.0614 32.4521 91.9392 32.9002 92.916C33.3483 93.8929 33.5994 94.9496 33.6391 96.0249C33.684 97.1004 33.5163 98.1743 33.1459 99.1844C32.7754 100.194 32.2094 101.121 31.4808 101.909C30.7571 102.702 29.8843 103.343 28.9129 103.794C27.9415 104.245 26.8908 104.497 25.8218 104.537C25.597 104.547 25.3726 104.546 25.1499 104.537C23.2229 104.459 21.3877 103.69 19.9759 102.369ZM25.1975 88.5652C24.1807 88.6034 23.1815 88.844 22.2576 89.2731C21.3336 89.7022 20.5034 90.3113 19.8148 91.0652C18.4229 92.5846 17.6869 94.5971 17.7681 96.661C17.8493 98.725 18.7412 100.672 20.2481 102.074C20.9932 102.771 21.8686 103.312 22.8233 103.666C23.778 104.019 24.7931 104.179 25.8097 104.135C26.8265 104.097 27.8258 103.856 28.7498 103.427C29.6737 102.998 30.504 102.389 31.1924 101.635C31.8847 100.884 32.4223 100.003 32.774 99.0429C33.1258 98.0824 33.2847 97.0613 33.2416 96.0388C33.2039 95.0156 32.9647 94.0102 32.5379 93.081C32.111 92.1517 31.505 91.3169 30.755 90.6251C29.4113 89.3696 27.6653 88.639 25.8325 88.5652C25.6234 88.5566 25.4099 88.5574 25.1961 88.5651L25.1975 88.5652Z" fill="#0E2549"/>
</g>
<path id="Vector_9" d="M114.922 104.806L106.661 112.726L104.502 105.056L112.117 98.0159L114.922 104.806Z" fill="white"/>
<path id="Vector_10" d="M104.273 104.991L112.195 97.668L115.164 104.856L106.558 113.109L104.273 104.991ZM112.041 98.3645L104.732 105.12L106.766 112.346L114.679 104.759L112.041 98.3645Z" fill="#0E2549"/>
<path id="Vector_11" d="M96.608 55.3599L96.0009 44.2319H84.0051L80.4883 57.1907L96.608 55.3599Z" fill="white"/>
<path id="Vector_12" d="M88.9989 0.0968815C88.9989 0.0968815 81.6152 -0.0104067 76.541 6.39676C71.4667 12.8039 71.8428 13.9965 73.1062 18.6389C74.3696 23.2812 75.2406 26.0818 71.7389 28.0832C68.2371 30.0845 68.0265 32.251 67.3838 33.9264C66.7412 35.6018 69.3788 39.7035 68.5639 41.7173C65.6227 49.0075 65.3506 52.6169 65.3506 52.6169L115.584 54.1767C115.584 54.1767 116.376 45.5687 115.149 42.0722C114.329 39.7214 109.23 36.2372 108.841 33.3872C108.567 31.4394 111.203 26.3968 109.934 24.0832C107.632 19.8617 105.519 19.881 106.271 15.2798C106.68 12.8163 104.859 -1.29927 88.9989 0.0968815Z" fill="#0E2549"/>
<path id="Vector_13" d="M96.2788 25.2744C96.2788 25.2744 95.7086 39.3927 96.2446 40.13C98.0782 42.672 103.511 44.9086 104.751 45.2456C105.991 45.5826 86.2917 63.4767 86.2917 63.4767L74.1455 48.7449L78.1286 45.13C78.1286 45.13 81.4759 43.4368 82.9471 41.9086C84.4184 40.3804 85.1349 26.0172 85.1349 26.0172L96.2788 25.2744Z" fill="white"/>
<path id="Vector_14" d="M73.8604 48.7297L78.0075 44.9649L78.0321 44.9525C78.065 44.936 81.3657 43.2579 82.796 41.771C83.9596 40.5632 84.7267 29.9855 84.925 26.0117L84.9345 25.8301L96.4914 25.0557L96.4818 25.2826C96.2644 30.6609 96.0525 39.4174 96.408 40.0158C98.1404 42.4161 103.381 44.6664 104.804 45.0529C104.852 45.0653 104.896 45.0907 104.931 45.1263C104.966 45.1619 104.99 45.2065 105.002 45.2551C105.065 45.5192 105.196 46.0694 95.7845 54.9608C91.1738 59.317 86.4769 63.599 86.4236 63.6348L86.2663 63.7723L73.8604 48.7297ZM96.0784 40.2551C95.5452 39.5151 95.954 28.3088 96.0661 25.4945L85.3215 26.2139C85.2299 27.9635 84.5202 40.5674 83.0872 42.0557C81.6543 43.544 78.575 45.1368 78.2386 45.306L74.4223 48.771L86.3074 63.1864C93.2166 56.9071 103.954 46.8301 104.577 45.4119C103.141 44.98 97.9162 42.8026 96.0784 40.2551Z" fill="#0E2549"/>
<path id="Vector_15" d="M96.1047 27.581C97.7537 26.4806 100.647 24.2536 100.725 22.0789C100.803 19.9042 98.3389 20.1601 97.5869 20.504C97.0851 20.7323 97.5964 9.86297 97.5964 9.86297L80.8792 8.96338C80.8792 8.96338 78.4098 18.3086 79.0005 24.3086C79.6007 30.3334 82.3464 31.8932 86.7055 32.0886C88.8632 32.1862 90.56 31.7144 91.9014 31.0267L96.1047 27.581Z" fill="white"/>
<path id="Vector_16" d="M87.2556 32.3056C88.9 32.3241 90.5249 31.9468 91.9949 31.2051C92.0428 31.1804 92.0791 31.1376 92.0958 31.0861C92.1125 31.0345 92.1081 30.9784 92.0838 30.93C92.0592 30.8818 92.0166 30.8453 91.9654 30.8285C91.9141 30.8118 91.8584 30.8161 91.8103 30.8406C90.3062 31.615 88.5861 31.9658 86.7142 31.8819C82.6422 31.6976 79.8063 30.3358 79.2033 24.2849C78.6564 18.8172 80.7142 10.4362 81.0356 9.17485L97.385 10.0552C97.3549 10.7154 97.2605 12.8874 97.2058 15.0621C97.0691 20.417 97.2824 20.5641 97.4369 20.6673C97.4708 20.6908 97.5102 20.705 97.5511 20.7086C97.5921 20.7123 97.6333 20.7051 97.6707 20.6879C98.1083 20.4885 99.2678 20.3014 99.9679 20.7746C100.358 21.0359 100.544 21.472 100.515 22.0703C100.441 24.1336 97.6434 26.2987 95.9848 27.4073C95.9626 27.4222 95.9434 27.4413 95.9286 27.4636C95.9137 27.4859 95.9034 27.5109 95.8981 27.5373C95.8929 27.5636 95.893 27.5907 95.8982 27.6171C95.9035 27.6434 95.9138 27.6684 95.9287 27.6907C95.9435 27.7131 95.9625 27.7323 95.9847 27.7473C96.0068 27.7622 96.0317 27.7726 96.0579 27.7779C96.0841 27.7831 96.111 27.7831 96.1372 27.7778C96.1634 27.7725 96.1883 27.7621 96.2104 27.7471C97.9346 26.5958 100.842 24.3289 100.921 22.0841C100.955 21.1515 100.541 20.6728 100.188 20.4335C99.4223 19.9176 98.2573 20.0428 97.6584 20.2491C97.4492 19.2588 97.6243 13.4761 97.7952 9.86949L97.8047 9.66729L80.7211 8.74707L80.6787 8.908C80.6527 9.00154 78.1983 18.3564 78.7931 24.3248C79.0857 27.2533 79.9061 29.2767 81.3036 30.5325C82.5342 31.6329 84.1982 32.1831 86.6909 32.2877C86.8878 32.3014 87.0711 32.3056 87.2556 32.3056Z" fill="#0E2549"/>
<path id="Vector_17" d="M28.8647 58.0441C31.5502 59.282 42.638 69.2435 42.638 69.2435L35.629 73.3701C35.629 73.3701 28.769 62.7415 27.7079 62.6878C25.7157 62.5888 19.7773 63.2765 17.7399 62.1376C14.6661 60.4251 12.9542 58.0565 13.2277 57.249C13.3795 56.8144 18.6793 59.4265 19.791 59.3604C22.9263 59.1816 26.9504 57.1569 28.8647 58.0441Z" fill="white"/>
<path id="Vector_18" d="M35.4565 73.4789C32.1434 68.3469 28.334 62.9838 27.694 62.8875C27.1471 62.86 26.3089 62.8875 25.3285 62.9301C22.7306 63.0291 19.1604 63.1653 17.6385 62.318C14.6304 60.6385 12.6928 58.1791 13.0401 57.1832C13.0514 57.1497 13.0694 57.1189 13.0929 57.0927C13.1164 57.0664 13.145 57.0453 13.1769 57.0305C13.4599 56.8998 14.2297 57.1846 16.1974 57.9672C17.5647 58.5174 19.2616 59.1873 19.7743 59.1584C21.0255 59.0842 22.4311 58.71 23.7889 58.3483C25.8194 57.8063 27.7364 57.296 28.9411 57.8503C31.6238 59.0883 42.311 68.6743 42.765 69.0828L42.9728 69.2699L35.5563 73.6399L35.4565 73.4789ZM28.777 58.2245L28.8618 58.0388L28.777 58.2245C27.705 57.732 25.8563 58.2245 23.8996 58.7458C22.5213 59.113 21.0952 59.4927 19.7976 59.5711C19.1959 59.6055 17.5962 58.9686 16.0483 58.3524C15.0255 57.9397 13.7703 57.4445 13.3997 57.4102C13.3327 58.1419 14.8765 60.3194 17.83 61.9645C19.2534 62.7568 22.7524 62.6234 25.308 62.5257C26.2966 62.4886 27.1512 62.4556 27.7091 62.4831C27.9374 62.4941 28.4721 62.5216 32.2213 67.9315C33.7911 70.1928 35.2801 72.4707 35.6821 73.0938L42.2932 69.2038C40.7563 67.8311 31.2054 59.3441 28.7797 58.2245H28.777Z" fill="#0E2549"/>
<path id="Vector_19" d="M63.4854 114.362C67.0678 115.875 70.6448 117.219 74.1411 118.226C89.1287 122.538 101.474 121.039 110.298 115.163C110.108 114.321 109.912 113.507 109.709 112.721C109.683 112.622 109.658 112.523 109.632 112.424V112.401C108.836 109.317 107.858 106.282 106.705 103.314C104.357 97.3184 102.3 94.5839 102.3 94.5839L71.4994 94.1011C71.4639 94.1699 70.8704 95.3129 69.9953 97.3899C69.1202 99.467 67.9374 102.479 66.7355 106.29C66.6139 106.618 64.7228 111.279 63.4854 114.362Z" fill="#0E2549"/>
<path id="Vector_20" d="M82.6144 19.9462C82.736 19.9461 82.8533 19.9015 82.9444 19.8207C83.0356 19.7399 83.0943 19.6284 83.1097 19.5072L83.1822 18.9567C83.1908 18.891 83.1865 18.8242 83.1694 18.7602C83.1523 18.6962 83.1229 18.6362 83.0827 18.5836C83.0426 18.5311 82.9925 18.487 82.9354 18.454C82.8783 18.4209 82.8152 18.3996 82.7499 18.3911C82.6847 18.3824 82.6184 18.3867 82.5548 18.4038C82.4913 18.4209 82.4317 18.4504 82.3795 18.4906C82.3272 18.5309 82.2834 18.5811 82.2505 18.6384C82.2176 18.6957 82.1962 18.759 82.1876 18.8246L82.1165 19.3751C82.0994 19.5075 82.1351 19.6413 82.2159 19.7473C82.2966 19.8533 82.4158 19.9229 82.5474 19.9407L82.6144 19.9462Z" fill="#0E2549"/>
<path id="Vector_21" d="M90.0451 20.2708C90.1667 20.2708 90.2842 20.2262 90.3756 20.1454C90.467 20.0646 90.526 19.9531 90.5417 19.8318L90.6142 19.2813C90.6228 19.2156 90.6185 19.1488 90.6014 19.0848C90.5843 19.0208 90.5549 18.9608 90.5147 18.9082C90.4746 18.8557 90.4245 18.8116 90.3674 18.7786C90.3103 18.7455 90.2472 18.7242 90.1819 18.7157C90.1164 18.7076 90.05 18.7126 89.9864 18.7303C89.9228 18.7481 89.8633 18.7783 89.8114 18.8192C89.7594 18.8601 89.716 18.9109 89.6835 18.9687C89.6511 19.0265 89.6303 19.0902 89.6224 19.1561L89.5512 19.7065C89.5426 19.7721 89.5469 19.8388 89.5638 19.9027C89.5808 19.9667 89.6101 20.0266 89.6502 20.0792C89.6902 20.1317 89.7401 20.1758 89.7971 20.2089C89.854 20.242 89.9169 20.2635 89.9821 20.2721C90.0031 20.2729 90.0241 20.2724 90.0451 20.2708Z" fill="#0E2549"/>
<path id="Vector_22" d="M92.9795 18.1325C93.0342 18.1322 93.0875 18.1154 93.1326 18.0842C93.1777 18.0531 93.2125 18.009 93.2324 17.9578C93.2575 17.8903 93.2552 17.8155 93.2261 17.7497C93.1969 17.6838 93.1432 17.6321 93.0766 17.6057C89.6582 16.2948 88.1541 16.9702 88.0898 17.0005C88.0243 17.0305 87.9731 17.0853 87.9475 17.1531C87.9219 17.2208 87.9239 17.296 87.9531 17.3622C87.983 17.4278 88.0372 17.479 88.1043 17.5047C88.1713 17.5305 88.2456 17.5287 88.3113 17.4998C88.3373 17.4888 89.7211 16.9097 92.8783 18.1201C92.9109 18.1308 92.9453 18.135 92.9795 18.1325Z" fill="#0E2549"/>
<path id="Vector_23" d="M85.0555 23.6019C85.1156 23.6015 85.1739 23.5812 85.2213 23.5441C85.2688 23.5071 85.3028 23.4554 85.3181 23.3969C85.3352 23.3269 85.3242 23.253 85.2877 23.191C85.2511 23.129 85.1918 23.0839 85.1226 23.0655C84.9585 23.0201 83.9589 22.5152 83.7552 22.0668C83.7367 22.0354 83.7262 21.9999 83.7245 21.9635C83.7228 21.927 83.7301 21.8907 83.7456 21.8577C84.1763 20.9719 85.556 18.0063 85.1745 17.1122C85.1467 17.0402 85.1034 16.9753 85.0476 16.9222C84.9917 16.8692 84.9249 16.8293 84.8518 16.8055C81.5702 15.7546 80.531 16.5799 80.423 16.6775C80.37 16.7262 80.3382 16.7939 80.3344 16.8659C80.3305 16.9379 80.355 17.0086 80.4025 17.0627C80.4501 17.1149 80.5159 17.1467 80.5862 17.1513C80.6565 17.1559 80.7259 17.133 80.7798 17.0875C80.8072 17.0668 81.737 16.3804 84.6754 17.3213C84.8381 17.5758 84.4416 19.1906 83.2589 21.6184C83.2058 21.7252 83.1781 21.8429 83.1781 21.9623C83.1781 22.0817 83.2058 22.1994 83.2589 22.3062C83.5802 23.0049 84.793 23.5441 84.9844 23.6005C85.008 23.604 85.0319 23.6045 85.0555 23.6019Z" fill="#0E2549"/>
<path id="Vector_24" d="M79.4561 8.96497C79.4561 8.96497 94.6843 13.3474 97.3684 20.8673C97.3684 20.8673 98.3324 20.478 99.0092 20.5606C99.8829 20.6665 100.181 20.9732 100.181 20.9732L99.7148 8.49316L79.4561 8.96497Z" fill="#0E2549"/>
<path id="Vector_25" d="M88.0487 25.6688C88.0487 25.6688 84.3965 28.7913 82.6846 25.3057C82.6846 25.3057 83.5761 24.7362 84.7479 25.3401C84.7479 25.3401 86.0442 24.9467 88.0487 25.6688Z" fill="#E2474B"/>
<path id="Vector_26" d="M68.0555 41.9978C61.077 47.5419 50.0077 72.3909 47.7889 71.341C45.6988 70.3508 33.2021 58.726 33.2021 58.726L24 65.8615C24 65.8615 42.3602 91.7588 53.0118 90.0399C60.5996 88.8152 68.916 69.9872 68.916 69.9872L70.1205 97.2982L105.403 97.7909L110.974 67.8716L119.331 83.1563L108.359 100L114 108.5C114 108.5 135 96.8669 135 83.1563C135 75.7453 123.127 48.4832 118.157 43.3626C114.791 39.8995 110 39.4493 108.359 39.4477C106.665 39.4477 96.2036 38.4403 95.6021 39.4477C95.2284 40.0774 88.3959 52.6562 87.9813 52.8372C86.6214 53.4354 84.0367 39.1046 84.0367 39.1046C81.0907 38.6749 69.943 40.4977 68.0555 41.9978Z" fill="#E2474B"/>
<path id="Vector_27" d="M85.6564 92.4849C85.7089 92.4845 85.7591 92.4639 85.7968 92.4273C85.8345 92.3907 85.8567 92.3408 85.8588 92.2882L87.2603 55.7063C87.609 55.1134 91.3077 48.8204 93.8742 44.0419C93.8995 43.9944 93.905 43.9389 93.8897 43.8873C93.8743 43.8358 93.8392 43.7924 93.7922 43.7668C93.7449 43.7418 93.6898 43.7364 93.6387 43.7518C93.5875 43.7672 93.5445 43.8023 93.5187 43.8493C90.8414 48.8356 86.9267 55.4766 86.8871 55.5412L86.8611 55.5866V55.6375L85.4513 92.2648C85.4502 92.2917 85.4544 92.3186 85.4637 92.3439C85.4729 92.3692 85.487 92.3924 85.5052 92.4122C85.5233 92.432 85.5452 92.448 85.5695 92.4593C85.5938 92.4706 85.6201 92.4769 85.6469 92.478L85.6564 92.4849Z" fill="#0E2549"/>
<path id="Vector_28" d="M72.2806 66.5386H81.2217V61.4505H72.2806V66.5386Z" fill="white"/>
<path id="Vector_29" d="M72.0748 61.2466H81.4179V66.7486H72.0693L72.0748 61.2466ZM81.0173 61.6592H72.4823V66.336H81.0173V61.6592Z" fill="#0E2549"/>
</g>
</svg>
