<svg width="24" height="24" viewBox="0 0 24 24" fill="none" xmlns="http://www.w3.org/2000/svg">
<path d="M20.3437 17.1563H18.6961C18.5836 17.1563 18.4781 17.2055 18.4078 17.2922C18.2437 17.4914 18.0679 17.6836 17.8828 17.8664C17.1255 18.6245 16.2285 19.2286 15.2414 19.6453C14.2187 20.0773 13.1195 20.2989 12.0093 20.2969C10.8867 20.2969 9.79919 20.0766 8.77732 19.6453C7.79019 19.2286 6.89319 18.6245 6.13591 17.8664C5.37727 17.111 4.77236 16.2155 4.35466 15.2297C3.92107 14.2078 3.7031 13.1227 3.7031 12C3.7031 10.8774 3.92341 9.79222 4.35466 8.77035C4.77185 7.78363 5.37185 6.89535 6.13591 6.13363C6.89997 5.37191 7.78825 4.77191 8.77732 4.35472C9.79919 3.92347 10.8867 3.70316 12.0093 3.70316C13.132 3.70316 14.2195 3.92113 15.2414 4.35472C16.2304 4.77191 17.1187 5.37191 17.8828 6.13363C18.0679 6.31879 18.2414 6.51097 18.4078 6.70785C18.4781 6.79457 18.5859 6.84379 18.6961 6.84379H20.3437C20.4914 6.84379 20.5828 6.67972 20.5008 6.5555C18.7031 3.76175 15.5578 1.91254 11.9836 1.92191C6.36794 1.93597 1.8656 6.49457 1.92185 12.1032C1.9781 17.6227 6.47341 22.0782 12.0093 22.0782C15.5742 22.0782 18.7054 20.2313 20.5008 17.4446C20.5804 17.3203 20.4914 17.1563 20.3437 17.1563ZM22.4273 11.8524L19.1015 9.22738C18.9773 9.12894 18.7968 9.218 18.7968 9.37504V11.1563H11.4375C11.3343 11.1563 11.25 11.2407 11.25 11.3438V12.6563C11.25 12.7594 11.3343 12.8438 11.4375 12.8438H18.7968V14.625C18.7968 14.7821 18.9797 14.8711 19.1015 14.7727L22.4273 12.1477C22.4497 12.1302 22.4679 12.1077 22.4803 12.0822C22.4928 12.0566 22.4993 12.0285 22.4993 12C22.4993 11.9716 22.4928 11.9435 22.4803 11.9179C22.4679 11.8923 22.4497 11.8699 22.4273 11.8524Z" fill="black"/>
</svg>
