<svg width="24" height="24" viewBox="0 0 24 24" fill="none" xmlns="http://www.w3.org/2000/svg">
<path d="M22.1597 13.0686C22.0154 12.924 21.8344 12.8214 21.6362 12.7719C21.438 12.7223 21.2301 12.7277 21.0347 12.7874C19.6698 13.1994 18.2187 13.2335 16.836 12.886C15.4532 12.5386 14.1906 11.8225 13.1827 10.8142C12.1747 9.80585 11.4592 8.54299 11.1122 7.16012C10.7653 5.77725 10.7999 4.32617 11.2125 2.96144C11.2727 2.76597 11.2784 2.5578 11.2292 2.3593C11.1799 2.1608 11.0774 1.9795 10.9328 1.83488C10.7882 1.69026 10.6069 1.5878 10.4084 1.53852C10.2099 1.48924 10.0017 1.495 9.80624 1.55519C7.75348 2.18612 5.95207 3.44852 4.65843 5.16269C3.52715 6.66634 2.83727 8.45549 2.6662 10.3294C2.49513 12.2033 2.84964 14.0878 3.68995 15.7714C4.53026 17.4551 5.82312 18.8712 7.42346 19.861C9.0238 20.8508 10.8683 21.375 12.75 21.3749C14.9469 21.3813 17.0852 20.667 18.8372 19.3414C20.5504 18.0465 21.8115 16.2441 22.4409 14.1908C22.5001 13.9958 22.5051 13.7884 22.4556 13.5908C22.4061 13.3932 22.3038 13.2127 22.1597 13.0686ZM17.4834 17.5443C15.967 18.6858 14.0893 19.2413 12.1959 19.1084C10.3025 18.9756 8.52078 18.1634 7.17865 16.8212C5.83651 15.4791 5.02428 13.6974 4.89143 11.8039C4.75858 9.91053 5.31405 8.03284 6.45561 6.51644C7.0563 5.72187 7.80074 5.04707 8.6503 4.52706C8.63343 4.76706 8.62499 5.008 8.62499 5.24987C8.62797 7.93428 9.69566 10.5079 11.5938 12.406C13.492 14.3042 16.0656 15.3719 18.75 15.3749C18.9919 15.3749 19.2328 15.3664 19.4728 15.3496C18.953 16.1993 18.2782 16.9438 17.4834 17.5443Z" fill="black"/>
</svg>
