<svg width="24" height="24" viewBox="0 0 24 24" fill="none" xmlns="http://www.w3.org/2000/svg">
<path d="M12 22C17.5228 22 22 17.5228 22 12C22 6.47715 17.5228 2 12 2C6.47715 2 2 6.47715 2 12C2 17.5228 6.47715 22 12 22Z" stroke="black" stroke-width="2" stroke-linecap="round" stroke-linejoin="round"/>
<path d="M9.69226 9.69246C9.69226 9.23604 9.8276 8.78987 10.0812 8.41037C10.3347 8.03088 10.6952 7.73509 11.1168 7.56043C11.5385 7.38577 12.0025 7.34007 12.4502 7.42911C12.8978 7.51815 13.309 7.73794 13.6317 8.06067C13.9545 8.38341 14.1743 8.7946 14.2633 9.24225C14.3523 9.6899 14.3066 10.1539 14.132 10.5756C13.9573 10.9973 13.6615 11.3577 13.282 11.6112C12.9025 11.8648 12.4564 12.0002 12 12.0002V13.5386" stroke="black" stroke-width="2" stroke-linecap="round" stroke-linejoin="round"/>
<path d="M11.9999 15.8462C11.7717 15.8462 11.5486 15.9139 11.3589 16.0406C11.1691 16.1674 11.0212 16.3476 10.9339 16.5585C10.8466 16.7693 10.8237 17.0013 10.8682 17.2251C10.9128 17.449 11.0227 17.6546 11.184 17.8159C11.3454 17.9773 11.551 18.0872 11.7748 18.1317C11.9986 18.1762 12.2306 18.1534 12.4415 18.0661C12.6523 17.9787 12.8325 17.8308 12.9593 17.6411C13.0861 17.4513 13.1538 17.2282 13.1538 17C13.1498 16.6953 13.0269 16.4041 12.8114 16.1886C12.5959 15.973 12.3047 15.8502 11.9999 15.8462Z" fill="black"/>
</svg>
