<svg width="16" height="15" viewBox="0 0 16 15" fill="none" xmlns="http://www.w3.org/2000/svg">
<path d="M15.5001 5.75273C15.4527 5.61555 15.3666 5.49505 15.2521 5.40586C15.1376 5.31666 14.9997 5.2626 14.8551 5.25023L10.5876 4.62773L8.6751 0.750231C8.61369 0.623428 8.5178 0.516487 8.39842 0.441661C8.27904 0.366835 8.141 0.327148 8.0001 0.327148C7.85921 0.327148 7.72117 0.366835 7.60179 0.441661C7.48241 0.516487 7.38652 0.623428 7.32511 0.750231L5.41261 4.62023L1.14511 5.25023C1.0063 5.26996 0.875798 5.3282 0.768418 5.41835C0.661037 5.5085 0.581075 5.62694 0.537605 5.76023C0.497814 5.89049 0.494243 6.02912 0.527276 6.16125C0.560309 6.29338 0.628698 6.41402 0.725105 6.51023L3.82261 9.51023L3.07261 13.7702C3.04583 13.9108 3.05985 14.0562 3.11301 14.1891C3.16617 14.322 3.25625 14.4369 3.37261 14.5202C3.48602 14.6013 3.61979 14.6492 3.75889 14.6584C3.898 14.6677 4.03693 14.638 4.16011 14.5727L8.0001 12.5702L11.8251 14.5802C11.9304 14.6396 12.0492 14.6706 12.1701 14.6702C12.329 14.6708 12.4839 14.6209 12.6126 14.5277C12.729 14.4444 12.819 14.3295 12.8722 14.1966C12.9254 14.0637 12.9394 13.9183 12.9126 13.7777L12.1626 9.51773L15.2601 6.51773C15.3684 6.42599 15.4484 6.30541 15.4909 6.16999C15.5334 6.03458 15.5366 5.88989 15.5001 5.75273ZM10.8876 8.75273C10.7996 8.83781 10.7338 8.94311 10.6959 9.05946C10.658 9.17581 10.6492 9.29967 10.6701 9.42023L11.2101 12.5627L8.39011 11.0627C8.28159 11.005 8.16054 10.9747 8.03761 10.9747C7.91467 10.9747 7.79362 11.005 7.6851 11.0627L4.86511 12.5627L5.40511 9.42023C5.42606 9.29967 5.41719 9.17581 5.37928 9.05946C5.34137 8.94311 5.27556 8.83781 5.18761 8.75273L2.93761 6.50273L6.09511 6.04523C6.2166 6.02833 6.3321 5.98189 6.43148 5.90997C6.53086 5.83805 6.61107 5.74286 6.6651 5.63273L8.0001 2.77523L9.4101 5.64023C9.46414 5.75036 9.54436 5.84555 9.64373 5.91747C9.74311 5.98939 9.85861 6.03583 9.98011 6.05273L13.1376 6.51023L10.8876 8.75273Z" fill="black"/>
</svg>
