<svg width="24" height="24" viewBox="0 0 24 24" fill="none" xmlns="http://www.w3.org/2000/svg">
<path fill-rule="evenodd" clip-rule="evenodd" d="M12.4684 8.51172C11.5432 8.51172 10.6559 8.87924 10.0017 9.53344C9.3475 10.1876 8.97998 11.0749 8.97998 12.0001C8.97998 12.9253 9.3475 13.8125 10.0017 14.4667C10.6559 15.1209 11.5432 15.4885 12.4684 15.4885C13.3935 15.4885 14.2808 15.1209 14.935 14.4667C15.5892 13.8125 15.9567 12.9253 15.9567 12.0001C15.9567 11.0749 15.5892 10.1876 14.935 9.53344C14.2808 8.87924 13.3935 8.51172 12.4684 8.51172ZM10.3753 12.0001C10.3753 11.445 10.5958 10.9126 10.9884 10.5201C11.3809 10.1276 11.9132 9.90707 12.4684 9.90707C13.0235 9.90707 13.5558 10.1276 13.9483 10.5201C14.3409 10.9126 14.5614 11.445 14.5614 12.0001C14.5614 12.5552 14.3409 13.0876 13.9483 13.4801C13.5558 13.8726 13.0235 14.0931 12.4684 14.0931C11.9132 14.0931 11.3809 13.8726 10.9884 13.4801C10.5958 13.0876 10.3753 12.5552 10.3753 12.0001Z" fill="black"/>
<path fill-rule="evenodd" clip-rule="evenodd" d="M12.4451 2C12.0312 2 11.686 2 11.4032 2.0186C11.1142 2.03064 10.8291 2.09036 10.5595 2.19535C10.2491 2.3238 9.96694 2.51216 9.72928 2.74966C9.49162 2.98716 9.30307 3.26916 9.17441 3.57953C9.03952 3.90512 9.00324 4.2493 8.98836 4.62326C8.98687 4.76002 8.95067 4.89416 8.88314 5.0131C8.81562 5.13205 8.71899 5.23188 8.60231 5.30326C8.4822 5.36884 8.3474 5.40282 8.21055 5.40201C8.0737 5.40119 7.93931 5.36561 7.81999 5.2986C7.48882 5.12372 7.17255 4.98326 6.82278 4.93674C6.4897 4.89293 6.15126 4.91516 5.82677 5.00214C5.50229 5.08913 5.19811 5.23918 4.93161 5.44372C4.70629 5.625 4.51237 5.84218 4.35766 6.08651C4.19952 6.32279 4.0265 6.6214 3.81999 6.97954L3.79673 7.02047C3.58929 7.3786 3.4172 7.67721 3.29254 7.93209C3.16231 8.19814 3.05999 8.46047 3.02278 8.7507C2.93403 9.42325 3.11606 10.1035 3.52882 10.6419C3.74371 10.9219 4.02371 11.1256 4.33999 11.3247C4.4579 11.3944 4.55615 11.4929 4.62547 11.6111C4.69479 11.7292 4.73292 11.8631 4.73627 12C4.73292 12.1369 4.69479 12.2708 4.62547 12.3889C4.55615 12.5071 4.4579 12.6056 4.33999 12.6753C4.02371 12.8744 3.74464 13.0781 3.52882 13.3581C3.32428 13.6246 3.17423 13.9288 3.08725 14.2533C3.00026 14.5778 2.97804 14.9162 3.02185 15.2493C3.05999 15.5395 3.16138 15.8019 3.29161 16.0679C3.4172 16.3228 3.58929 16.6214 3.79673 16.9795L3.81999 17.0205C4.0265 17.3786 4.19952 17.6772 4.35766 17.9135C4.52231 18.1581 4.69906 18.3786 4.93161 18.5554C5.19804 18.7601 5.50219 18.9103 5.82667 18.9974C6.15116 19.0846 6.48964 19.1069 6.82278 19.0633C7.17255 19.0167 7.48882 18.8772 7.81999 18.7014C7.93917 18.6345 8.0734 18.5989 8.21008 18.5981C8.34677 18.5973 8.48141 18.6312 8.60138 18.6967C8.7187 18.7676 8.81594 18.8672 8.88384 18.9863C8.95174 19.1053 8.98804 19.2397 8.98929 19.3767C9.00324 19.7507 9.03952 20.0949 9.17534 20.4205C9.30379 20.7309 9.49215 21.013 9.72965 21.2507C9.96715 21.4884 10.2491 21.6769 10.5595 21.8056C10.8293 21.9172 11.1084 21.9609 11.4032 21.9805C11.686 22 12.0312 22 12.4451 22H12.4916C12.9056 22 13.2507 22 13.5335 21.9814C13.8293 21.9609 14.1074 21.9172 14.3772 21.8047C14.6877 21.6762 14.9698 21.4878 15.2074 21.2503C15.4451 21.0128 15.6336 20.7308 15.7623 20.4205C15.8972 20.0949 15.9335 19.7507 15.9484 19.3767C15.9497 19.2398 15.9858 19.1055 16.0534 18.9864C16.1209 18.8673 16.2176 18.7673 16.3344 18.6958C16.4546 18.6304 16.5894 18.5966 16.7263 18.5975C16.8631 18.5985 16.9975 18.6342 17.1167 18.7014C17.4479 18.8763 17.7642 19.0167 18.1139 19.0623C18.7865 19.1511 19.4667 18.969 20.0051 18.5563C20.2377 18.3777 20.4144 18.1581 20.5791 17.9135C20.7372 17.6772 20.9102 17.3786 21.1167 17.0205L21.14 16.9795C21.3474 16.6214 21.5195 16.3228 21.6442 16.0679C21.7744 15.8019 21.8767 15.5386 21.9139 15.2493C22.0027 14.5768 21.8207 13.8965 21.4079 13.3581C21.193 13.0781 20.913 12.8744 20.5967 12.6753C20.4788 12.6056 20.3806 12.5071 20.3112 12.3889C20.2419 12.2708 20.2038 12.1369 20.2005 12C20.2005 11.7414 20.3418 11.4847 20.5967 11.3247C20.913 11.1256 21.1921 10.9219 21.4079 10.6419C21.6124 10.3754 21.7625 10.0712 21.8495 9.7467C21.9365 9.42222 21.9587 9.08377 21.9149 8.7507C21.8706 8.46485 21.7795 8.18826 21.6451 7.93209C21.4863 7.62302 21.3178 7.319 21.14 7.02047L21.1167 6.97954C20.9468 6.67636 20.7675 6.37854 20.5791 6.08651C20.4244 5.84244 20.2304 5.62557 20.0051 5.44465C19.7387 5.23995 19.4345 5.08973 19.11 5.00258C18.7856 4.91543 18.4471 4.89306 18.1139 4.93674C17.7642 4.98326 17.4479 5.12279 17.1167 5.2986C16.9975 5.36545 16.8633 5.40094 16.7266 5.40175C16.59 5.40256 16.4553 5.36867 16.3353 5.30326C16.2183 5.23211 16.1213 5.13237 16.0535 5.01341C15.9856 4.89446 15.9491 4.7602 15.9474 4.62326C15.9335 4.2493 15.8972 3.90512 15.7614 3.57953C15.6329 3.26907 15.4446 2.98695 15.2071 2.74929C14.9696 2.51163 14.6876 2.32308 14.3772 2.19442C14.1074 2.08279 13.8284 2.03907 13.5335 2.01953C13.2507 2 12.9056 2 12.4916 2H12.4451ZM11.0935 3.48372C11.1651 3.45395 11.2739 3.42698 11.4981 3.41116C11.7279 3.39535 12.0256 3.39535 12.4684 3.39535C12.9111 3.39535 13.2088 3.39535 13.4386 3.41116C13.6628 3.42698 13.7716 3.45395 13.8432 3.48372C14.1288 3.60186 14.3549 3.82791 14.473 4.11349C14.5102 4.20279 14.5409 4.34326 14.553 4.67535C14.5809 5.41209 14.9614 6.12186 15.6367 6.51163C16.3121 6.90233 17.1167 6.87628 17.7688 6.53209C18.0628 6.37674 18.1995 6.33302 18.2963 6.32093C18.6019 6.28054 18.9111 6.36319 19.1558 6.5507C19.2172 6.59814 19.2953 6.67907 19.4209 6.86512C19.5502 7.05674 19.6991 7.31442 19.9205 7.69767C20.1418 8.08093 20.2898 8.33953 20.3912 8.54605C20.4907 8.74791 20.5214 8.85581 20.5307 8.93302C20.5711 9.23867 20.4884 9.54784 20.3009 9.79256C20.2414 9.86977 20.1353 9.96651 19.8544 10.1433C19.2293 10.5358 18.8051 11.2205 18.8051 12C18.8051 12.7795 19.2293 13.4642 19.8544 13.8567C20.1353 14.0335 20.2414 14.1302 20.3009 14.2074C20.4888 14.4521 20.5707 14.7609 20.5307 15.067C20.5214 15.1442 20.4898 15.253 20.3912 15.454C20.2898 15.6614 20.1418 15.9191 19.9205 16.3023C19.6991 16.6856 19.5493 16.9433 19.4209 17.1349C19.2953 17.3209 19.2172 17.4019 19.1558 17.4493C18.9111 17.6368 18.6019 17.7195 18.2963 17.6791C18.1995 17.667 18.0637 17.6233 17.7688 17.4679C17.1177 17.1237 16.3121 17.0977 15.6367 17.4874C14.9614 17.8781 14.5809 18.5879 14.553 19.3247C14.5409 19.6567 14.5102 19.7972 14.473 19.8865C14.4146 20.0277 14.3289 20.156 14.2208 20.2641C14.1128 20.3721 13.9844 20.4578 13.8432 20.5163C13.7716 20.546 13.6628 20.573 13.4386 20.5888C13.2088 20.6047 12.9111 20.6047 12.4684 20.6047C12.0256 20.6047 11.7279 20.6047 11.4981 20.5888C11.2739 20.573 11.1651 20.546 11.0935 20.5163C10.9523 20.4578 10.824 20.3721 10.7159 20.2641C10.6078 20.156 10.5221 20.0277 10.4637 19.8865C10.4265 19.7972 10.3958 19.6567 10.3837 19.3247C10.3558 18.5879 9.97534 17.8781 9.29999 17.4884C8.62464 17.0977 7.81999 17.1237 7.16789 17.4679C6.87394 17.6233 6.7372 17.667 6.64045 17.6791C6.33481 17.7195 6.02564 17.6368 5.78092 17.4493C5.71952 17.4019 5.64138 17.3209 5.5158 17.1349C5.34083 16.8625 5.17424 16.5849 5.01627 16.3023C4.79487 15.9191 4.64696 15.6605 4.54557 15.454C4.44603 15.2521 4.41534 15.1442 4.40603 15.067C4.36565 14.7613 4.44829 14.4522 4.6358 14.2074C4.69534 14.1302 4.80138 14.0335 5.08231 13.8567C5.70743 13.4642 6.13162 12.7795 6.13162 12C6.13162 11.2205 5.70743 10.5358 5.08231 10.1433C4.80138 9.96651 4.69534 9.86977 4.6358 9.79256C4.44829 9.54784 4.36565 9.23867 4.40603 8.93302C4.41534 8.85581 4.44696 8.74698 4.54557 8.54605C4.64696 8.3386 4.79487 8.08093 5.01627 7.69767C5.23766 7.31442 5.38743 7.05674 5.5158 6.86512C5.64138 6.67907 5.71952 6.59814 5.78092 6.5507C6.02564 6.36319 6.33481 6.28054 6.64045 6.32093C6.7372 6.33302 6.87301 6.37674 7.16789 6.53209C7.81906 6.87628 8.62464 6.90233 9.29999 6.51163C9.97534 6.12186 10.3558 5.41209 10.3837 4.67535C10.3958 4.34326 10.4265 4.20279 10.4637 4.11349C10.5818 3.82791 10.8079 3.60186 11.0935 3.48372Z" fill="black"/>
</svg>
